<svg width="16" height="16" viewBox="0 0 16 16" fill="none" xmlns="http://www.w3.org/2000/svg">
<path fill-rule="evenodd" clip-rule="evenodd" d="M9.40202 0C8.80256 0 8.31659 0.485963 8.31659 1.08543V8.80402C8.31659 8.83352 8.31777 8.86274 8.32008 8.89165L8.31657 8.89132C8.31283 9.6208 7.72031 10.211 6.98995 10.211C6.41746 10.211 5.92967 9.84837 5.74374 9.34028C5.55782 9.84839 5.07001 10.211 4.49751 10.211C3.76483 10.211 3.17088 9.61709 3.17088 8.88441V8.40314L3.17085 8.40314V2.77389C3.17085 2.17443 2.68489 1.68847 2.08543 1.68847C1.48596 1.68847 1 2.17443 1 2.77389V8.48243C1 8.59417 1.01688 8.70196 1.04824 8.80339L1.08041 11.2161C1.08041 11.2161 1.80135 15.0921 5.36735 15.8579C8.93336 16.6237 10.9367 14.0442 10.9367 14.0442L12.5443 11.7999L14.8424 8.67126C15.2075 8.17419 15.0837 7.47294 14.5706 7.13083C14.1377 6.84224 13.5607 6.90269 13.197 7.27473L10.7488 9.77925L10.7364 9.77186H10.3758V9.28408C10.4473 9.13935 10.4874 8.97637 10.4874 8.80402V1.08543C10.4874 0.485962 10.0015 0 9.40202 0ZM4.5779 4.90448C3.97843 4.90448 3.49247 5.39044 3.49247 5.9899V8.80397C3.49247 9.40344 3.97843 9.8894 4.5779 9.8894C5.17736 9.8894 5.66332 9.40344 5.66332 8.80398V5.9899C5.66332 5.39044 5.17736 4.90448 4.5779 4.90448ZM5.90453 5.50756C5.90453 4.9081 6.39049 4.42214 6.98996 4.42214C7.58942 4.42214 8.07539 4.9081 8.07539 5.50756V8.80404C8.07539 9.40351 7.58942 9.88947 6.98996 9.88947C6.39049 9.88947 5.90453 9.40351 5.90453 8.80404V5.50756Z" fill="black"/>
</svg>
